<?xml version="1.0" encoding="UTF-8"?>
<svg width="32px" height="32px" viewBox="0 0 32 32" version="1.1" xmlns="http://www.w3.org/2000/svg" xmlns:xlink="http://www.w3.org/1999/xlink">
    <!-- Generator: Sketch 51.2 (57519) - http://www.bohemiancoding.com/sketch -->
    <title>logo-symfony</title>
    <desc>Created with Sketch.</desc>
    <defs></defs>
    <g id="logo-symfony" stroke="none" stroke-width="1" fill="none" fill-rule="evenodd">
        <g id="Group">
            <path d="M32,3.2 C32,1.43392 30.56608,0 28.8,0 L3.2,0 C1.43392,0 0,1.43392 0,3.2 L0,28.8 C0,30.56608 1.43392,32 3.2,32 L28.8,32 C30.56608,32 32,30.56608 32,28.8 L32,3.2 Z" id="Shape" fill="#FFFFFF"></path>
            <path d="M24.0695552,4.1630105 C22.2891819,4.22391717 20.7348352,5.20674384 19.5779285,6.5626905 C18.2969685,8.05186384 17.4450219,9.81655717 16.8303019,11.6191172 C15.7324885,10.7184238 14.8858752,9.5530905 13.1229952,9.0462105 C11.7610752,8.65463717 10.3307819,8.81559717 9.01504852,9.7959705 C8.39190186,10.2612505 7.96256852,10.9640772 7.75851519,11.6269038 C7.22976852,13.3454105 8.31382186,14.8757572 8.80662186,15.4245572 L9.88416852,16.5780505 C10.1057152,16.8046105 10.6407552,17.3949038 10.3788885,18.2405572 C10.0972885,19.1615172 8.98784852,19.7558638 7.85003519,19.4065305 C7.34155519,19.2505838 6.61152852,18.8721305 6.77536852,18.3399705 C6.84224852,18.1215172 6.99851519,17.9571438 7.08288852,17.7707972 C7.15904852,17.6080238 7.19627519,17.4870638 7.21942186,17.4146372 C7.42720852,16.7367705 7.14283519,15.8538905 6.41622186,15.6292505 C5.73782186,15.4211438 5.04406186,15.5860505 4.77494186,16.4589038 C4.46998186,17.4507972 4.94464852,19.2512238 7.48790186,20.0346905 C10.4673152,20.9515972 12.9871019,19.3286638 13.3445419,17.2136772 C13.5699285,15.8888772 12.9711019,14.9039172 11.8755285,13.6382105 L10.9819819,12.6497305 C10.4413952,12.1094638 10.2554752,11.1881838 10.8151552,10.4803438 C11.2880085,9.88247717 11.9602219,9.62839717 13.0630485,9.9278105 C14.6721152,10.3640772 15.3887019,11.4806638 16.5849685,12.3813572 C16.0918485,14.0019438 15.7684352,15.6286105 15.4764885,17.0870638 L15.2971819,18.1752772 C14.4421419,22.6600772 13.7890219,25.1238638 12.0923819,26.5379438 C11.7501952,26.7814638 11.2616619,27.1455172 10.5254485,27.1714372 C10.1385685,27.1832772 10.0138752,26.9170372 10.0085419,26.8007705 C9.99979519,26.5304772 10.2279552,26.4061038 10.3795285,26.2845038 C10.6067285,26.1604505 10.9495552,25.9554372 10.9260885,25.2982638 C10.9013419,24.5216238 10.2582485,23.8485572 9.32822186,23.8794905 C8.63190186,23.9029572 7.57035519,24.5575705 7.61067519,25.7576772 C7.65163519,26.9973572 8.80662186,27.9261038 10.5485952,27.8671172 C11.4795819,27.8358638 13.5589419,27.4570905 15.6074752,25.0219972 C17.9922219,22.2294638 18.6591019,19.0293572 19.1606485,16.6867438 L19.7209685,13.5935172 C20.0316885,13.6310638 20.3644885,13.6563438 20.7264085,13.6647705 C23.6967552,13.7275972 25.1814485,12.1897838 25.2045952,11.0703172 C25.2196352,10.3930905 24.7605419,9.7258905 24.1174485,9.7418905 C23.6580352,9.7546905 23.0799019,10.0615705 22.9417685,10.6971972 C22.8054485,11.3206638 23.8864085,11.8840772 23.0417152,12.4325572 C22.4417152,12.8207172 21.3660885,13.0937838 19.8509952,12.8722372 L20.1263019,11.3496772 C20.6885419,8.46274384 21.3819819,4.91202384 24.0130219,4.82519717 C24.2049152,4.8161305 24.9058219,4.83330384 24.9221419,5.29762384 C24.9268352,5.45175717 24.8880085,5.49239717 24.7071019,5.84642384 C24.5221419,6.1226905 24.4523819,6.35895717 24.4614485,6.6289305 C24.4868352,7.3655705 25.0471552,7.85058384 25.8586752,7.82242384 C26.9436885,7.78583717 27.2552619,6.72994384 27.2374485,6.18679717 C27.1930752,4.9105305 25.8484352,4.10423717 24.0695552,4.1630105 Z" id="Shape" fill="#007DBD" fill-rule="nonzero"></path>
        </g>
    </g>
</svg>