<?xml version="1.0" encoding="UTF-8"?>
<svg width="32px" height="32px" viewBox="0 0 32 32" version="1.1" xmlns="http://www.w3.org/2000/svg" xmlns:xlink="http://www.w3.org/1999/xlink">
    <!-- Generator: Sketch 51.2 (57519) - http://www.bohemiancoding.com/sketch -->
    <title>logo-symfony</title>
    <desc>Created with Sketch.</desc>
    <defs>
        <path d="M29,16 C29,23.1797017 23.1797017,29 16,29 C8.82029825,29 3,23.1797017 3,16 C3,8.82029825 8.82029825,3 16,3 C23.1797017,3 29,8.82029825 29,16 Z M21.681,7.81 C20.3680508,7.9067802 19.1570479,8.55359265 18.3465,9.591 C17.4326115,10.6991608 16.739761,11.9723287 16.3055,13.3415 C15.493,12.6915 14.8625,11.8075 13.556,11.4305 C12.5094426,11.1091382 11.371946,11.3177196 10.5075,11.9895 C10.0652766,12.3359165 9.74068464,12.8103201 9.578,13.348 C9.34502827,14.3597149 9.63838107,15.4206742 10.358,16.169 L11.1575,17.027 C11.5071585,17.333847 11.6510102,17.8133524 11.528,18.262 C11.2422678,19.0141366 10.4066393,19.3986992 9.6495,19.1265 C9.2725,19.0095 8.733,18.73 8.85,18.3335 C8.91605155,18.1876146 8.99206446,18.0464478 9.0775,17.911 C9.11835277,17.8269377 9.15310903,17.740047 9.1815,17.651 C9.34910214,17.1281796 9.08955177,16.5639396 8.5835,16.351 C8.34165753,16.2457236 8.06543799,16.2539399 7.83028057,16.3734049 C7.59512315,16.4928699 7.42559629,16.7111023 7.368,16.9685 C7.1405,17.703 7.4915,19.042 9.383,19.6205 C11.593,20.2705 13.465,19.094 13.725,17.5275 C13.894,16.546 13.4455,15.8115 12.633,14.8755 L11.983,14.141 C11.5357841,13.7142536 11.4825104,13.0188911 11.8595,12.529 C12.2546514,12.0325899 12.9306348,11.8576295 13.517,12.1 C14.713,12.425 15.2395,13.2505 16.117,13.92 C15.753,15.1225 15.5125,16.3315 15.2915,17.4105 L15.1615,18.2165 C14.5115,21.5445 14.0435,23.371 12.7825,24.4175 C12.453622,24.6921233 12.0464376,24.855907 11.619,24.8855 C11.4383923,24.9131069 11.2685379,24.7921936 11.2355,24.6125 C11.2355,24.411 11.398,24.32 11.5085,24.229 C11.7891919,24.102316 11.9531544,23.8061257 11.9115,23.501 C11.8982292,23.2030332 11.7650679,22.9230854 11.5422792,22.724779 C11.3194904,22.5264725 11.0259971,22.4266508 10.7285,22.448 C10.034778,22.5207005 9.50611834,23.1025058 9.5,23.8 C9.5,24.7165 10.3905,25.4055 11.6775,25.3665 C12.3665,25.3665 13.9135,25.061 15.428,23.254 C17.196,21.1805 17.69,18.808 18.067,17.0725 L18.483,14.778 C18.717,14.778 18.964,14.8235 19.2305,14.83 C21.434,14.8755 22.5325,13.738 22.552,12.88 C22.5773988,12.6418514 22.5065061,12.4034353 22.3551123,12.2178558 C22.2037184,12.0322763 21.9843974,11.9149464 21.746,11.892 C21.3280568,11.9018732 20.9697622,12.1933218 20.875,12.6005 C20.7775,13.062 21.577,13.4845 20.9465,13.9005 C20.2205805,14.283661 19.3828475,14.3987342 18.5805,14.2255 L18.782,13.0945 C19.198,10.956 19.7115,8.317 21.6615,8.2585 C21.8045,8.2585 22.3115,8.2585 22.3115,8.6095 C22.3115,8.7265 22.3115,8.7525 22.1555,9.019 C22.0318631,9.18606259 21.9677841,9.38974216 21.9735,9.5975 C21.9805576,9.85657786 22.0969773,10.1005552 22.2939316,10.2690193 C22.4908859,10.4374833 22.749959,10.5146822 23.007,10.4815 C23.3039551,10.4567402 23.5787385,10.3144571 23.7703432,10.08624 C23.9619479,9.85802294 24.0545175,9.56275822 24.0275,9.266 C23.995,8.317 22.994,7.719 21.6745,7.7645 L21.681,7.81 Z" id="path-1"></path>
    </defs>
    <g id="logo-symfony" stroke="none" stroke-width="1" fill="none" fill-rule="evenodd">
        <g id="symbol">
            <mask id="mask-2" fill="white">
                <use xlink:href="#path-1"></use>
            </mask>
            <use id="symfony" fill="#7C8A96" fill-rule="nonzero" xlink:href="#path-1"></use>
            <g id="Symfony-Grey" mask="url(#mask-2)" fill="#7C8A96">
                <rect id="Rectangle" x="0" y="0" width="32" height="32"></rect>
            </g>
        </g>
    </g>
</svg>